<svg width="130" height="15" viewBox="0 0 130 15" fill="none" xmlns="http://www.w3.org/2000/svg">
<g clip-path="url(#clip0_2_2)">
<path d="M22.998 0.0882339H20.6279V14.9118H22.998V0.0882339Z" fill="white"/>
<path d="M31.5125 14.9118V13.6765H21.769V14.9118H31.5125Z" fill="white"/>
<path d="M109.372 0.0882339H107.002V14.9118H109.372V0.0882339Z" fill="white"/>
<path d="M99.102 0.0882339H96.7319V14.9118H99.102V0.0882339Z" fill="white"/>
<path d="M107.002 8.02941V6.79412L97.2585 6.79412V8.02941H107.002Z" fill="white"/>
<path d="M127.576 14.9118H129.912V5.42647C129.912 3.98262 129.824 0.0882339 123.373 0.0882339C116.921 0.0882339 116.921 4.07008 116.921 5.42647V14.9118H119.2V5.42647C119.2 4.15753 119.2 1.26886 123.373 1.26886C127.576 1.26886 127.576 4.15412 127.576 5.42422V5.42647V14.9118Z" fill="white" stroke="white"/>
<path d="M10.743 14.9118H13.0791V5.42647C13.0791 3.98262 12.9913 0.0882339 6.53961 0.0882339C0.0878906 0.0882339 0.0878906 4.07008 0.0878906 5.42647V14.9118H2.36705V5.42647C2.36705 4.15753 2.36705 1.26886 6.53961 1.26886C10.743 1.26886 10.743 4.15412 10.743 5.42422V5.42647V14.9118Z" fill="white" stroke="white"/>
<path d="M59.1289 0.0882339H56.7927V9.57353C56.7927 11.0174 56.8805 14.9118 63.3322 14.9118C69.7839 14.9118 69.7839 10.9299 69.7839 9.57353V0.0882357L67.5048 0.0882348V9.57353C67.5048 10.8424 67.5048 13.7311 63.3322 13.7311C59.1289 13.7311 59.1289 10.8459 59.1289 9.57573V9.57353V0.0882339Z" fill="white" stroke="white"/>
<path d="M88.2641 1.94145V0.0885043L82.1971 0.0885052C80.3515 0.0885052 77.333 -0.0217286 77.333 4.2025C77.333 8.42674 80.2134 8.42674 81.9472 8.42674H85.244V6.5738H81.9472C80.3251 6.5738 78.7632 6.5738 78.7632 4.2025C78.7632 1.94145 80.5191 1.94145 82.1971 1.94145H88.2641Z" fill="white"/>
<path d="M78.2522 13.0591V14.912H84.3188C86.1645 14.912 89.1829 15.0222 89.1829 10.7981C89.1829 6.5738 86.3025 6.5738 84.5687 6.5738H81.2719V8.42674H84.5687C86.1908 8.42674 87.7527 8.42674 87.7527 10.7981C87.7527 13.0591 85.9968 13.0591 84.3188 13.0591H78.2522Z" fill="white"/>
<path d="M48.3243 1.94145V0.0885043L42.2576 0.0885052C40.412 0.0885052 37.3936 -0.0217286 37.3936 4.2025C37.3936 8.42674 40.2739 8.42674 42.0077 8.42674H45.3046V6.5738H42.0077C40.3857 6.5738 38.8237 6.5738 38.8237 4.2025C38.8237 1.94145 40.5797 1.94145 42.2576 1.94145H48.3243Z" fill="white"/>
<path d="M38.313 13.0591V14.912H44.3796C46.2253 14.912 49.2437 15.0222 49.2437 10.7981C49.2437 6.5738 46.3633 6.5738 44.6295 6.5738H41.3327V8.42674H44.6295C46.2516 8.42674 47.8135 8.42674 47.8135 10.7981C47.8135 13.0591 46.0576 13.0591 44.3796 13.0591H38.313Z" fill="white"/>
</g>
<defs>
<clipPath id="clip0_2_2">
<rect width="130" height="15" fill="white"/>
</clipPath>
</defs>
</svg>
